<svg width="80" height="92" viewBox="0 0 80 92" fill="none" xmlns="http://www.w3.org/2000/svg">
<path d="M74.9637 52.5414C72.5537 46.9946 69.2257 41.62 65.0178 36.5896C59.93 30.469 54.8614 26.3759 52.2793 24.4823L62.034 6.38836C62.5122 5.4894 62.3591 4.38004 61.6132 3.67235C59.0885 1.20499 56.4107 0 53.4269 0C50.6918 0 48.1862 1.03285 46.0057 1.95094C44.2843 2.65863 42.6585 3.34719 41.3388 3.34719C40.9371 3.34719 40.5928 3.28981 40.2485 3.15593C35.6964 1.49189 32.1962 0.459044 28.8107 0.459044C24.5263 0.459044 20.8731 2.18046 17.2964 5.85281C16.5504 6.61788 16.4357 7.82287 17.0286 8.72183L27.5483 24.6162C24.9471 26.548 19.9741 30.6029 14.982 36.5896C10.7932 41.62 7.44605 46.9946 5.03607 52.5414C2.01403 59.5227 0.483887 66.81 0.483887 74.1929C0.483887 84.005 8.4789 92 18.291 92H61.7088C71.5209 92 79.5159 84.005 79.5159 74.1929C79.5159 66.81 77.9858 59.5227 74.9637 52.5414ZM21.9251 7.76549C24.1438 5.85281 26.2668 5.01123 28.8107 5.01123C31.5267 5.01123 34.587 5.92931 38.661 7.44033C39.5026 7.74636 40.4016 7.89938 41.3196 7.89938C43.5575 7.89938 45.6997 7.01954 47.7463 6.15884C49.7163 5.33638 51.5907 4.55218 53.4078 4.55218C54.2876 4.55218 55.5309 4.7052 57.0993 5.81455L47.9184 22.8757H31.9284L21.9251 7.76549ZM61.7088 87.4096H18.291C11.0036 87.4096 5.07432 81.4802 5.07432 74.1929C5.07432 61.9326 9.56913 50.3035 18.4057 39.6308C23.9907 32.879 29.6714 28.6902 31.3928 27.4661H48.5687C50.3092 28.6711 55.9708 32.879 61.5558 39.6308C70.4115 50.3035 74.8872 61.9135 74.8872 74.1929C74.9255 81.4802 68.9962 87.4096 61.7088 87.4096Z" fill="white" fill-opacity="0.48"/>
</svg>
